<svg width="16" height="25" viewBox="0 0 16 25" fill="none" xmlns="http://www.w3.org/2000/svg">
<path d="M14.4201 15.6942H5.11543L5.58262 14.7427L13.3451 14.7286C13.6076 14.7286 13.8326 14.5411 13.8795 14.2817L14.9545 8.26455C14.9826 8.10674 14.9404 7.94424 14.8373 7.8208C14.7863 7.76005 14.7228 7.71112 14.651 7.67739C14.5792 7.64366 14.501 7.62595 14.4217 7.62549L4.54668 7.59268L4.4623 7.1958C4.40918 6.94268 4.18105 6.7583 3.92168 6.7583H1.50762C1.36133 6.7583 1.22104 6.81641 1.1176 6.91985C1.01417 7.02329 0.956055 7.16358 0.956055 7.30986C0.956055 7.45615 1.01417 7.59644 1.1176 7.69988C1.22104 7.80331 1.36133 7.86143 1.50762 7.86143H3.4748L3.84355 9.61455L4.75137 14.0099L3.58262 15.9177C3.52192 15.9996 3.48536 16.0969 3.47708 16.1985C3.4688 16.3001 3.48912 16.402 3.53574 16.4927C3.62949 16.6786 3.81855 16.7958 4.02793 16.7958H5.00918C4.79999 17.0736 4.687 17.4121 4.6873 17.7599C4.6873 18.6442 5.40605 19.363 6.29043 19.363C7.1748 19.363 7.89355 18.6442 7.89355 17.7599C7.89355 17.4114 7.77793 17.0724 7.57168 16.7958H10.0889C9.87968 17.0736 9.76669 17.4121 9.76699 17.7599C9.76699 18.6442 10.4857 19.363 11.3701 19.363C12.2545 19.363 12.9732 18.6442 12.9732 17.7599C12.9732 17.4114 12.8576 17.0724 12.6514 16.7958H14.4217C14.7248 16.7958 14.9732 16.5489 14.9732 16.2442C14.9723 16.0981 14.9137 15.9583 14.81 15.8552C14.7064 15.7522 14.5663 15.6943 14.4201 15.6942V15.6942ZM4.77637 8.68018L13.7732 8.70986L12.892 13.6442L5.8248 13.6567L4.77637 8.68018ZM6.29043 18.2536C6.01855 18.2536 5.79668 18.0317 5.79668 17.7599C5.79668 17.488 6.01855 17.2661 6.29043 17.2661C6.5623 17.2661 6.78418 17.488 6.78418 17.7599C6.78418 17.8908 6.73216 18.0164 6.63956 18.109C6.54697 18.2016 6.42138 18.2536 6.29043 18.2536V18.2536ZM11.3701 18.2536C11.0982 18.2536 10.8764 18.0317 10.8764 17.7599C10.8764 17.488 11.0982 17.2661 11.3701 17.2661C11.642 17.2661 11.8639 17.488 11.8639 17.7599C11.8639 17.8908 11.8118 18.0164 11.7193 18.109C11.6267 18.2016 11.5011 18.2536 11.3701 18.2536V18.2536Z" fill="white"/>
</svg>
